# Blender 3.6.0
# www.blender.org
o Ball
v 0.000000 0.000000 -0.250000
v 0.180902 -0.131431 -0.111805
v -0.069097 -0.212662 -0.111805
v -0.223607 0.000000 -0.111804
v -0.069097 0.212662 -0.111805
v 0.180902 0.131431 -0.111805
v 0.069097 -0.212662 0.111805
v -0.180902 -0.131431 0.111805
v -0.180902 0.131431 0.111805
v 0.069097 0.212662 0.111805
v 0.223607 0.000000 0.111804
v 0.000000 0.000000 0.250000
v -0.040614 -0.124999 -0.212664
v 0.106331 -0.077253 -0.212664
v 0.065717 -0.202253 -0.131434
v 0.212662 0.000000 -0.131434
v 0.106331 0.077253 -0.212664
v -0.131432 0.000000 -0.212663
v -0.172047 -0.124999 -0.131434
v -0.040614 0.124999 -0.212664
v -0.172047 0.124999 -0.131434
v 0.065717 0.202253 -0.131434
v 0.237764 -0.077253 0.000000
v 0.237764 0.077253 0.000000
v 0.000000 -0.250000 0.000000
v 0.146946 -0.202254 0.000000
v -0.237764 -0.077253 0.000000
v -0.146946 -0.202254 0.000000
v -0.146946 0.202254 0.000000
v -0.237764 0.077253 0.000000
v 0.146946 0.202254 0.000000
v 0.000000 0.250000 0.000000
v 0.172047 -0.124999 0.131434
v -0.065717 -0.202253 0.131434
v -0.212662 0.000000 0.131434
v -0.065717 0.202253 0.131434
v 0.172047 0.124999 0.131434
v 0.040614 -0.124999 0.212664
v 0.131432 0.000000 0.212663
v -0.106331 -0.077253 0.212664
v -0.106331 0.077253 0.212664
v 0.040614 0.124999 0.212664
vn 0.1024 -0.3151 -0.9435
vn 0.7002 -0.2680 -0.6617
vn -0.2680 -0.1947 -0.9435
vn -0.2680 0.1947 -0.9435
vn 0.1024 0.3151 -0.9435
vn 0.9050 -0.2680 -0.3304
vn 0.0247 -0.9435 -0.3304
vn -0.8897 -0.3151 -0.3304
vn -0.5746 0.7488 -0.3304
vn 0.5346 0.7779 -0.3304
vn 0.8026 -0.5831 -0.1256
vn -0.3066 -0.9435 -0.1256
vn -0.9921 -0.0000 -0.1256
vn -0.3066 0.9435 -0.1256
vn 0.8026 0.5831 -0.1256
vn 0.4089 -0.6284 0.6617
vn -0.4713 -0.5831 0.6617
vn -0.7002 0.2680 0.6617
vn 0.0385 0.7488 0.6617
vn 0.7240 0.1947 0.6617
vn 0.2680 0.1947 0.9435
vn 0.4911 0.3568 0.7947
vn 0.4089 0.6284 0.6617
vn -0.1024 0.3151 0.9435
vn -0.1876 0.5773 0.7947
vn -0.4713 0.5831 0.6617
vn -0.3313 -0.0000 0.9435
vn -0.6071 -0.0000 0.7947
vn -0.7002 -0.2680 0.6617
vn -0.1024 -0.3151 0.9435
vn -0.1876 -0.5773 0.7947
vn 0.0385 -0.7488 0.6617
vn 0.2680 -0.1947 0.9435
vn 0.4911 -0.3568 0.7947
vn 0.7240 -0.1947 0.6617
vn 0.8897 0.3151 0.3304
vn 0.7947 0.5773 0.1876
vn 0.5746 0.7488 0.3304
vn -0.0247 0.9435 0.3304
vn -0.3035 0.9342 0.1876
vn -0.5346 0.7779 0.3304
vn -0.9050 0.2680 0.3304
vn -0.9822 -0.0000 0.1876
vn -0.9050 -0.2680 0.3304
vn -0.5346 -0.7779 0.3304
vn -0.3035 -0.9342 0.1876
vn -0.0247 -0.9435 0.3304
vn 0.5746 -0.7488 0.3304
vn 0.7947 -0.5773 0.1876
vn 0.8897 -0.3151 0.3304
vn 0.3066 0.9435 0.1256
vn 0.3035 0.9342 -0.1876
vn 0.0247 0.9435 -0.3304
vn -0.8026 0.5831 0.1256
vn -0.7947 0.5773 -0.1876
vn -0.8897 0.3151 -0.3304
vn -0.8026 -0.5831 0.1256
vn -0.7947 -0.5773 -0.1876
vn -0.5746 -0.7488 -0.3304
vn 0.3066 -0.9435 0.1256
vn 0.3035 -0.9342 -0.1876
vn 0.5346 -0.7779 -0.3304
vn 0.9921 -0.0000 0.1256
vn 0.9822 -0.0000 -0.1876
vn 0.9050 0.2680 -0.3304
vn 0.4713 0.5831 -0.6617
vn 0.1876 0.5773 -0.7947
vn -0.0385 0.7488 -0.6617
vn -0.4089 0.6284 -0.6617
vn -0.4911 0.3568 -0.7947
vn -0.7240 0.1947 -0.6617
vn -0.7240 -0.1947 -0.6617
vn -0.4911 -0.3568 -0.7947
vn -0.4089 -0.6284 -0.6617
vn 0.7002 0.2680 -0.6617
vn 0.6071 -0.0000 -0.7947
vn 0.3313 -0.0000 -0.9435
vn -0.0385 -0.7488 -0.6617
vn 0.1876 -0.5773 -0.7947
vn 0.4713 -0.5831 -0.6617
vt 0.570075 0.012665
vt 0.510896 0.108873
vt 0.457166 0.009520
vt 0.451718 0.205082
vt 0.564626 0.208227
vt 0.505448 0.304435
vt 0.999915 0.807490
vt 0.940736 0.903698
vt 0.887006 0.804345
vt 0.892455 0.608783
vt 0.833276 0.704992
vt 0.779546 0.605639
vt 0.784995 0.410077
vt 0.725816 0.506286
vt 0.672086 0.406933
vt 0.392540 0.301290
vt 0.344258 0.006376
vt 0.397988 0.105729
vt 0.285080 0.102584
vt 0.774098 0.801201
vt 0.827828 0.900554
vt 0.714920 0.897409
vt 0.666638 0.602495
vt 0.720368 0.701848
vt 0.607460 0.698703
vt 0.559178 0.403788
vt 0.612908 0.503141
vt 0.500000 0.499997
vt 0.338810 0.201937
vt 0.231350 0.003231
vt 0.661190 0.798056
vt 0.553730 0.599350
vt 0.446270 0.400644
vt 0.225902 0.198793
vt 0.279632 0.298146
vt 0.166724 0.295001
vt 0.118442 0.000085
vt 0.172172 0.099439
vt 0.059264 0.096295
vt 0.548282 0.794911
vt 0.602012 0.894264
vt 0.489104 0.891120
vt 0.440822 0.596205
vt 0.494552 0.695558
vt 0.381644 0.692414
vt 0.333362 0.397499
vt 0.387092 0.496852
vt 0.274184 0.493708
vt 0.327914 0.593061
vt 0.215005 0.589916
vt 0.435374 0.791767
vt 0.322465 0.788622
vt 0.542834 0.990473
vt 0.429925 0.987329
vt 0.655742 0.993617
vt 0.112994 0.195648
vt 0.000085 0.192504
vt 0.220454 0.394354
vt 0.107545 0.391210
vt 0.768650 0.996762
vt 0.881558 0.999907
vt 0.618356 0.307580
vt 0.677535 0.211371
s 0
f 1/1/1 14/2/1 13/3/1
f 2/4/2 14/5/2 16/6/2
f 1/7/3 13/8/3 18/9/3
f 1/10/4 18/11/4 20/12/4
f 1/13/5 20/14/5 17/15/5
f 2/4/6 16/6/6 23/16/6
f 3/17/7 15/18/7 25/19/7
f 4/20/8 19/21/8 27/22/8
f 5/23/9 21/24/9 29/25/9
f 6/26/10 22/27/10 31/28/10
f 2/4/11 23/16/11 26/29/11
f 3/17/12 25/19/12 28/30/12
f 4/20/13 27/22/13 30/31/13
f 5/23/14 29/25/14 32/32/14
f 6/26/15 31/28/15 24/33/15
f 7/34/16 33/35/16 38/36/16
f 8/37/17 34/38/17 40/39/17
f 9/40/18 35/41/18 41/42/18
f 10/43/19 36/44/19 42/45/19
f 11/46/20 37/47/20 39/48/20
f 39/48/21 42/49/21 12/50/21
f 39/48/22 37/47/22 42/49/22
f 37/47/23 10/43/23 42/49/23
f 42/45/24 41/51/24 12/52/24
f 42/45/25 36/44/25 41/51/25
f 36/44/26 9/40/26 41/51/26
f 41/42/27 40/53/27 12/54/27
f 41/42/28 35/41/28 40/53/28
f 35/41/29 8/55/29 40/53/29
f 40/39/30 38/56/30 12/57/30
f 40/39/31 34/38/31 38/56/31
f 34/38/32 7/34/32 38/56/32
f 38/36/33 39/58/33 12/59/33
f 38/36/34 33/35/34 39/58/34
f 33/35/35 11/46/35 39/58/35
f 24/33/36 37/47/36 11/46/36
f 24/33/37 31/28/37 37/47/37
f 31/28/38 10/43/38 37/47/38
f 32/32/39 36/44/39 10/43/39
f 32/32/40 29/25/40 36/44/40
f 29/25/41 9/40/41 36/44/41
f 30/31/42 35/41/42 9/40/42
f 30/31/43 27/22/43 35/41/43
f 27/22/44 8/55/44 35/41/44
f 28/30/45 34/38/45 8/37/45
f 28/30/46 25/19/46 34/38/46
f 25/19/47 7/34/47 34/38/47
f 26/29/48 33/35/48 7/34/48
f 26/29/49 23/16/49 33/35/49
f 23/16/50 11/46/50 33/35/50
f 31/28/51 32/32/51 10/43/51
f 31/28/52 22/27/52 32/32/52
f 22/27/53 5/23/53 32/32/53
f 29/25/54 30/31/54 9/40/54
f 29/25/55 21/24/55 30/31/55
f 21/24/56 4/20/56 30/31/56
f 27/22/57 28/60/57 8/55/57
f 27/22/58 19/21/58 28/60/58
f 19/21/59 3/61/59 28/60/59
f 25/19/60 26/29/60 7/34/60
f 25/19/61 15/18/61 26/29/61
f 15/18/62 2/4/62 26/29/62
f 23/16/63 24/33/63 11/46/63
f 23/16/64 16/6/64 24/33/64
f 16/6/65 6/26/65 24/33/65
f 17/15/66 22/27/66 6/26/66
f 17/15/67 20/14/67 22/27/67
f 20/14/68 5/23/68 22/27/68
f 20/12/69 21/24/69 5/23/69
f 20/12/70 18/11/70 21/24/70
f 18/11/71 4/20/71 21/24/71
f 18/9/72 19/21/72 4/20/72
f 18/9/73 13/8/73 19/21/73
f 13/8/74 3/61/74 19/21/74
f 16/6/75 17/62/75 6/26/75
f 16/6/76 14/5/76 17/62/76
f 14/5/77 1/63/77 17/62/77
f 13/3/78 15/18/78 3/17/78
f 13/3/79 14/2/79 15/18/79
f 14/2/80 2/4/80 15/18/80
