
o Wall2
v -3.228663 0.000000 -2.623878
v -3.228663 0.500000 -2.623878
v -3.008994 0.000000 -0.641605
v -3.008994 0.500000 -0.641605
v -3.008995 0.000000 -2.623878
v -3.008995 0.500000 -2.623878
v -3.228662 0.500000 -0.839442
v -3.228662 0.000000 -0.839442
v -4.066549 0.000000 -0.839441
v -4.066548 0.000000 -0.641605
v -4.066548 0.500000 -0.641605
v -4.066549 0.500000 -0.839441
vn -0.0000 -0.0000 -1.0000
vn 1.0000 -0.0000 -0.0000
vn -1.0000 -0.0000 -0.0000
vn -0.0000 1.0000 -0.0000
vn -0.0000 -0.0000 1.0000
vt 0.625000 0.250000
vt 0.375000 0.500000
vt 0.375000 0.250000
vt 0.625000 0.500000
vt 0.375000 0.750000
vt 0.000000 0.000000
vt 0.625000 0.750000
s 0
f 2/1/1 5/2/1 1/3/1
f 6/4/2 3/5/2 5/2/2
f 2/1/3 8/6/3 7/6/3
f 7/6/4 4/7/4 2/1/4
f 10/6/3 12/6/3 9/6/3
f 9/6/1 7/6/1 8/6/1
f 11/6/5 3/5/5 4/7/5
f 2/1/1 6/4/1 5/2/1
f 6/4/2 4/7/2 3/5/2
f 2/1/3 1/3/3 8/6/3
f 7/6/4 12/6/4 11/6/4
f 4/7/4 6/4/4 2/1/4
f 7/6/4 11/6/4 4/7/4
f 10/6/3 11/6/3 12/6/3
f 9/6/1 12/6/1 7/6/1
f 11/6/5 10/6/5 3/5/5
