# Blender 3.6.0
# www.blender.org
o Wall22
v 3.528610 0.000000 -2.623878
v 3.528610 0.500000 -2.623878
v 3.748279 0.000000 -0.641605
v 3.748279 0.500000 -0.641605
v 3.748278 0.000000 -2.623878
v 3.748278 0.500000 -2.623878
v 3.528611 0.500000 -0.839442
v 3.528611 0.000000 -0.839442
v 2.690724 0.000000 -0.839441
v 2.690725 0.000000 -0.641605
v 2.690725 0.500000 -0.641605
v 2.690724 0.500000 -0.839441
vn -0.0000 -0.0000 -1.0000
vn 1.0000 -0.0000 -0.0000
vn -1.0000 -0.0000 -0.0000
vn -0.0000 1.0000 -0.0000
vn -0.0000 -0.0000 1.0000
vt 0.470105 0.129007
vt 0.408507 0.013957
vt 0.471661 0.014502
vt 0.406952 0.128462
vt 0.199260 0.669065
vt 0.220860 0.127203
vt 0.656768 0.638655
vt 0.470336 0.649538
vt 0.389088 0.665254
vt 0.416987 0.976819
vt 0.467870 0.875695
vt 0.487501 0.973909
vt 0.612089 0.863598
vt 0.402262 0.879814
vt 0.640664 0.126571
vt 0.215912 0.875772
s 0
f 2/1/1 5/2/1 1/3/1
f 6/4/2 3/5/2 5/6/2
f 2/1/3 8/7/3 7/8/3
f 7/8/4 4/9/4 2/1/4
f 10/10/3 12/11/3 9/12/3
f 9/13/1 7/8/1 8/7/1
f 11/14/5 3/5/5 4/9/5
f 2/1/1 6/4/1 5/2/1
f 6/4/2 4/9/2 3/5/2
f 2/1/3 1/15/3 8/7/3
f 7/8/4 12/11/4 11/14/4
f 4/9/4 6/4/4 2/1/4
f 7/8/4 11/14/4 4/9/4
f 10/10/3 11/14/3 12/11/3
f 9/13/1 12/11/1 7/8/1
f 11/14/5 10/16/5 3/5/5
