# Blender 3.6.0
# www.blender.org
o Wall28
v 3.023781 0.000000 -3.377155
v 3.023781 -0.000000 -2.176536
v 3.230093 -0.000000 -2.176536
v 3.023781 0.500000 -2.176536
v 3.023781 0.500000 -3.377155
v 3.230093 0.500000 -2.176536
v 3.230093 0.000000 -3.166595
v 3.230093 0.500000 -3.166595
v 3.715347 0.500000 -3.377155
v 3.715347 0.000000 -3.377155
v 3.715347 0.000000 -3.166595
v 3.715347 0.500000 -3.166595
vn 1.0000 -0.0000 -0.0000
vn -0.0000 -0.0000 -1.0000
vn -1.0000 -0.0000 -0.0000
vn -0.0000 -0.0000 1.0000
vn -0.0000 1.0000 -0.0000
vt 0.000000 0.000000
vt 1.000000 1.000000
vt 0.000000 1.000000
s 0
f 8/1/1 3/1/1 7/1/1
f 10/1/2 5/1/2 9/1/2
f 2/1/3 5/1/3 1/1/3
f 6/2/4 2/3/4 3/2/4
f 9/1/1 11/1/1 10/1/1
f 5/1/5 8/1/5 9/1/5
f 7/1/4 12/1/4 8/1/4
f 8/1/1 6/1/1 3/1/1
f 10/1/2 1/1/2 5/1/2
f 2/1/3 4/1/3 5/1/3
f 6/2/4 4/3/4 2/3/4
f 9/1/1 12/1/1 11/1/1
f 5/1/5 4/3/5 6/1/5
f 8/1/5 12/1/5 9/1/5
f 5/1/5 6/1/5 8/1/5
f 7/1/4 11/1/4 12/1/4
