# Blender 3.6.0
# www.blender.org
o Wall23
v 3.030036 0.000000 1.999764
v 5.230399 0.000000 1.999764
v 3.030036 -0.000000 2.200262
v 5.230399 -0.000000 2.200262
v 3.030036 0.500000 2.200262
v 3.030036 0.500000 1.999764
v 5.230399 0.500000 1.999764
v 5.230399 0.500000 2.200262
vn 1.0000 -0.0000 -0.0000
vn -0.0000 1.0000 -0.0000
vn -1.0000 -0.0000 -0.0000
vn -0.0000 -0.0000 1.0000
vn -0.0000 -0.0000 -1.0000
vt 0.000000 0.000000
vt 0.000000 1.000000
vt 1.000000 0.000000
vt 1.000000 1.000000
s 0
f 2/1/1 8/1/1 4/1/1
f 5/2/2 7/3/2 6/1/2
f 5/1/3 1/1/3 3/1/3
f 8/4/4 3/2/4 4/4/4
f 6/1/5 2/1/5 1/1/5
f 2/1/1 7/1/1 8/1/1
f 5/2/2 8/4/2 7/3/2
f 5/1/3 6/1/3 1/1/3
f 8/4/4 5/2/4 3/2/4
f 6/1/5 7/1/5 2/1/5
